<mxfile host="app.diagrams.net" modified="2023-03-23T05:51:20.574Z" agent="5.0 (Windows NT 10.0; Win64; x64) AppleWebKit/537.36 (KHTML, like Gecko) Chrome/110.0.0.0 Whale/3.19.166.16 Safari/537.36" etag="4RJqA-qkrQfTL9uLKds5" version="21.0.6" type="github">
  <diagram name="페이지-1" id="WdbPOWZgQCwgVUYRufdj">
    <mxGraphModel dx="1161" dy="631" grid="0" gridSize="10" guides="1" tooltips="1" connect="1" arrows="1" fold="1" page="1" pageScale="1" pageWidth="827" pageHeight="1169" math="0" shadow="0">
      <root>
        <mxCell id="0" />
        <mxCell id="1" parent="0" />
        <mxCell id="k63i88x8RMwJKloIp7tI-2" value="" style="endArrow=classic;html=1;rounded=0;exitX=0.5;exitY=1;exitDx=0;exitDy=0;entryX=0.5;entryY=0;entryDx=0;entryDy=0;" edge="1" parent="1" target="k63i88x8RMwJKloIp7tI-3">
          <mxGeometry width="50" height="50" relative="1" as="geometry">
            <mxPoint x="280" y="190" as="sourcePoint" />
            <mxPoint x="280" y="260" as="targetPoint" />
          </mxGeometry>
        </mxCell>
        <mxCell id="k63i88x8RMwJKloIp7tI-18" style="edgeStyle=orthogonalEdgeStyle;rounded=0;orthogonalLoop=1;jettySize=auto;html=1;entryX=0.5;entryY=0;entryDx=0;entryDy=0;" edge="1" parent="1" source="k63i88x8RMwJKloIp7tI-3" target="k63i88x8RMwJKloIp7tI-16">
          <mxGeometry relative="1" as="geometry" />
        </mxCell>
        <mxCell id="k63i88x8RMwJKloIp7tI-19" style="edgeStyle=orthogonalEdgeStyle;rounded=0;orthogonalLoop=1;jettySize=auto;html=1;entryX=0.5;entryY=0;entryDx=0;entryDy=0;" edge="1" parent="1" source="k63i88x8RMwJKloIp7tI-3" target="k63i88x8RMwJKloIp7tI-17">
          <mxGeometry relative="1" as="geometry" />
        </mxCell>
        <mxCell id="k63i88x8RMwJKloIp7tI-3" value="&lt;div style=&quot;&quot;&gt;front_vehicle_velocity_&lt;br&gt;estimator&lt;/div&gt;" style="rounded=1;whiteSpace=wrap;html=1;align=center;" vertex="1" parent="1">
          <mxGeometry x="206.25" y="296" width="147.5" height="74" as="geometry" />
        </mxCell>
        <mxCell id="k63i88x8RMwJKloIp7tI-4" value="msg::PointCloud2" style="ellipse;whiteSpace=wrap;html=1;" vertex="1" parent="1">
          <mxGeometry x="220" y="120" width="120" height="80" as="geometry" />
        </mxCell>
        <mxCell id="k63i88x8RMwJKloIp7tI-15" style="edgeStyle=orthogonalEdgeStyle;rounded=0;orthogonalLoop=1;jettySize=auto;html=1;entryX=0.5;entryY=0;entryDx=0;entryDy=0;" edge="1" parent="1" source="k63i88x8RMwJKloIp7tI-12" target="k63i88x8RMwJKloIp7tI-3">
          <mxGeometry relative="1" as="geometry" />
        </mxCell>
        <mxCell id="k63i88x8RMwJKloIp7tI-12" value="msg::Odometry" style="ellipse;whiteSpace=wrap;html=1;" vertex="1" parent="1">
          <mxGeometry x="340" y="120" width="120" height="80" as="geometry" />
        </mxCell>
        <mxCell id="k63i88x8RMwJKloIp7tI-14" style="edgeStyle=orthogonalEdgeStyle;rounded=0;orthogonalLoop=1;jettySize=auto;html=1;entryX=0.5;entryY=0;entryDx=0;entryDy=0;" edge="1" parent="1" source="k63i88x8RMwJKloIp7tI-13" target="k63i88x8RMwJKloIp7tI-3">
          <mxGeometry relative="1" as="geometry" />
        </mxCell>
        <mxCell id="k63i88x8RMwJKloIp7tI-13" value="autoware::&lt;br&gt;DetectedObject" style="ellipse;whiteSpace=wrap;html=1;" vertex="1" parent="1">
          <mxGeometry x="100" y="120" width="120" height="80" as="geometry" />
        </mxCell>
        <mxCell id="k63i88x8RMwJKloIp7tI-16" value="autoware::&lt;br&gt;DetectedObject" style="ellipse;whiteSpace=wrap;html=1;" vertex="1" parent="1">
          <mxGeometry x="160" y="419.5" width="120" height="80" as="geometry" />
        </mxCell>
        <mxCell id="k63i88x8RMwJKloIp7tI-17" value="msg::PointCloud2" style="ellipse;whiteSpace=wrap;html=1;" vertex="1" parent="1">
          <mxGeometry x="280" y="419.5" width="120" height="80" as="geometry" />
        </mxCell>
        <mxCell id="k63i88x8RMwJKloIp7tI-22" value="autoware::DetectedObject" style="swimlane;fontStyle=0;childLayout=stackLayout;horizontal=1;startSize=26;fillColor=none;horizontalStack=0;resizeParent=1;resizeParentMax=0;resizeLast=0;collapsible=1;marginBottom=0;whiteSpace=wrap;html=1;" vertex="1" parent="1">
          <mxGeometry x="492" y="157" width="185" height="132" as="geometry" />
        </mxCell>
        <mxCell id="k63i88x8RMwJKloIp7tI-23" value="+ pose: geometry/Pose" style="text;strokeColor=none;fillColor=none;align=left;verticalAlign=top;spacingLeft=4;spacingRight=4;overflow=hidden;rotatable=0;points=[[0,0.5],[1,0.5]];portConstraint=eastwest;whiteSpace=wrap;html=1;" vertex="1" parent="k63i88x8RMwJKloIp7tI-22">
          <mxGeometry y="26" width="185" height="26" as="geometry" />
        </mxCell>
        <mxCell id="k63i88x8RMwJKloIp7tI-24" value="+ dimensions: geometry/Vector3" style="text;strokeColor=none;fillColor=none;align=left;verticalAlign=top;spacingLeft=4;spacingRight=4;overflow=hidden;rotatable=0;points=[[0,0.5],[1,0.5]];portConstraint=eastwest;whiteSpace=wrap;html=1;" vertex="1" parent="k63i88x8RMwJKloIp7tI-22">
          <mxGeometry y="52" width="185" height="26" as="geometry" />
        </mxCell>
        <mxCell id="k63i88x8RMwJKloIp7tI-25" value="+ velocity: geometry/Twist" style="text;strokeColor=none;fillColor=none;align=left;verticalAlign=top;spacingLeft=4;spacingRight=4;overflow=hidden;rotatable=0;points=[[0,0.5],[1,0.5]];portConstraint=eastwest;whiteSpace=wrap;html=1;" vertex="1" parent="k63i88x8RMwJKloIp7tI-22">
          <mxGeometry y="78" width="185" height="27" as="geometry" />
        </mxCell>
        <mxCell id="k63i88x8RMwJKloIp7tI-29" value="+ ..." style="text;strokeColor=none;fillColor=none;align=left;verticalAlign=top;spacingLeft=4;spacingRight=4;overflow=hidden;rotatable=0;points=[[0,0.5],[1,0.5]];portConstraint=eastwest;whiteSpace=wrap;html=1;" vertex="1" parent="k63i88x8RMwJKloIp7tI-22">
          <mxGeometry y="105" width="185" height="27" as="geometry" />
        </mxCell>
        <mxCell id="k63i88x8RMwJKloIp7tI-30" value="msg::Odometry" style="swimlane;fontStyle=0;childLayout=stackLayout;horizontal=1;startSize=26;fillColor=none;horizontalStack=0;resizeParent=1;resizeParentMax=0;resizeLast=0;collapsible=1;marginBottom=0;whiteSpace=wrap;html=1;" vertex="1" parent="1">
          <mxGeometry x="496" y="306" width="238" height="105" as="geometry" />
        </mxCell>
        <mxCell id="k63i88x8RMwJKloIp7tI-31" value="+ pose: geometry/PoseWithCovariance" style="text;strokeColor=none;fillColor=none;align=left;verticalAlign=top;spacingLeft=4;spacingRight=4;overflow=hidden;rotatable=0;points=[[0,0.5],[1,0.5]];portConstraint=eastwest;whiteSpace=wrap;html=1;" vertex="1" parent="k63i88x8RMwJKloIp7tI-30">
          <mxGeometry y="26" width="238" height="26" as="geometry" />
        </mxCell>
        <mxCell id="k63i88x8RMwJKloIp7tI-32" value="+ twist: geometry/TwistWithCovariance" style="text;strokeColor=none;fillColor=none;align=left;verticalAlign=top;spacingLeft=4;spacingRight=4;overflow=hidden;rotatable=0;points=[[0,0.5],[1,0.5]];portConstraint=eastwest;whiteSpace=wrap;html=1;" vertex="1" parent="k63i88x8RMwJKloIp7tI-30">
          <mxGeometry y="52" width="238" height="26" as="geometry" />
        </mxCell>
        <mxCell id="k63i88x8RMwJKloIp7tI-34" value="+ ..." style="text;strokeColor=none;fillColor=none;align=left;verticalAlign=top;spacingLeft=4;spacingRight=4;overflow=hidden;rotatable=0;points=[[0,0.5],[1,0.5]];portConstraint=eastwest;whiteSpace=wrap;html=1;" vertex="1" parent="k63i88x8RMwJKloIp7tI-30">
          <mxGeometry y="78" width="238" height="27" as="geometry" />
        </mxCell>
      </root>
    </mxGraphModel>
  </diagram>
</mxfile>
